<svg xmlns="http://www.w3.org/2000/svg" xmlns:xlink="http://www.w3.org/1999/xlink" fill="none" version="1.1" width="315" height="311" viewBox="0 0 315 311"><defs><filter id="master_svg0_9_098" filterUnits="objectBoundingBox" color-interpolation-filters="sRGB" x="-20" y="-16" width="290" height="290"><feFlood flood-opacity="0" result="BackgroundImageFix"/><feColorMatrix in="SourceAlpha" type="matrix" values="0 0 0 0 0 0 0 0 0 0 0 0 0 0 0 0 0 0 127 0"/><feOffset dy="4" dx="0"/><feGaussianBlur stdDeviation="5"/><feColorMatrix type="matrix" values="0 0 0 0 0 0 0 0 0 0 0 0 0 0 0 0 0 0 0.3019607961177826 0"/><feBlend mode="normal" in2="BackgroundImageFix" result="effect1_dropShadow"/><feBlend mode="normal" in="SourceGraphic" in2="effect1_dropShadow" result="shape"/><feGaussianBlur in="BackgroundImage" stdDeviation="0"/><feComposite in2="SourceAlpha" operator="in" result="effect2_foregroundBlur"/><feBlend mode="normal" in="SourceGraphic" in2="effect2_foregroundBlur" result="shape"/></filter><filter id="master_svg1_9_090" filterUnits="objectBoundingBox" color-interpolation-filters="sRGB" x="0" y="0" width="250.00001525878906" height="250"><feFlood flood-opacity="0" result="BackgroundImageFix"/><feBlend mode="normal" in="SourceGraphic" in2="BackgroundImageFix" result="shape"/><feGaussianBlur in="BackgroundImage" stdDeviation="6.800000190734863"/><feComposite in2="SourceAlpha" operator="in" result="effect1_foregroundBlur"/><feBlend mode="normal" in="SourceGraphic" in2="effect1_foregroundBlur" result="shape"/></filter><linearGradient x1="1" y1="1" x2="0" y2="0" id="master_svg2_1_166"><stop offset="0%" stop-color="#FFF5F5" stop-opacity="1"/><stop offset="99.9999463558197%" stop-color="#FFF5F5" stop-opacity="0"/></linearGradient><filter id="master_svg3_9_092" filterUnits="objectBoundingBox" color-interpolation-filters="sRGB" x="-40" y="-40" width="157" height="124"><feFlood flood-opacity="0" result="BackgroundImageFix"/><feColorMatrix in="SourceAlpha" type="matrix" values="0 0 0 0 0 0 0 0 0 0 0 0 0 0 0 0 0 0 127 0"/><feOffset dy="-10" dx="-10"/><feGaussianBlur stdDeviation="5"/><feColorMatrix type="matrix" values="0 0 0 0 0 0 0 0 0 0 0 0 0 0 0 0 0 0 0.3019607961177826 0"/><feBlend mode="normal" in2="BackgroundImageFix" result="effect1_dropShadow"/><feBlend mode="normal" in="SourceGraphic" in2="effect1_dropShadow" result="shape"/><feGaussianBlur stdDeviation="2.5" result="effect2_foregroundBlur"/></filter><filter id="master_svg4_9_084" filterUnits="objectBoundingBox" color-interpolation-filters="sRGB" x="-6" y="-6" width="117" height="48"><feFlood flood-opacity="0" result="BackgroundImageFix"/><feColorMatrix in="SourceAlpha" type="matrix" values="0 0 0 0 0 0 0 0 0 0 0 0 0 0 0 0 0 0 127 0"/><feOffset dy="4" dx="4"/><feGaussianBlur stdDeviation="2.5"/><feColorMatrix type="matrix" values="0 0 0 0 0 0 0 0 0 0 0 0 0 0 0 0 0 0 0.3019607961177826 0"/><feBlend mode="normal" in2="BackgroundImageFix" result="effect1_dropShadow"/><feBlend mode="normal" in="SourceGraphic" in2="effect1_dropShadow" result="shape"/></filter></defs><g style="mix-blend-mode:passthrough"><g style="mix-blend-mode:passthrough" filter="url(#master_svg0_9_098)"><rect x="15" y="11" width="250" height="250" rx="35" fill="#637DFF" fill-opacity="1"/></g><g style="mix-blend-mode:passthrough" filter="url(#master_svg1_9_090)"><rect x="65" y="61" width="250.00001525878906" height="250" rx="35" fill="#5AA2EF" fill-opacity="0.6000000238418579"/><rect x="65.30500000715256" y="61.30500000715256" width="249.39001524448395" height="249.38999998569489" rx="34.69499999284744" stroke="url(#master_svg2_1_166)" fill-opacity="0" fill="none" stroke-width="0.6100000143051147"/></g><g style="mix-blend-mode:passthrough" filter="url(#master_svg3_9_092)"><path d="M120.25,186.624Q115.5,186.624,111.95312,184.374Q108.42188,182.10840000000002,107.265625,177.4677L112.3125,174.54590000000002Q114.10938,180.9052,120.2188,180.9052Q124.3281,180.9052,126.1562,178.04590000000002Q128,175.17090000000002,128,169.67090000000002L128,133.624L134.4844,133.624L134.4844,170.2177Q134.4844,178.7021,130.5156,182.67090000000002Q126.5469,186.624,120.25,186.624ZM171.5156,131.624L178,131.624L178,185.624L172.1562,185.624Q172.1562,182.0302,171.7969,179.54590000000002Q169.7969,183.124,166.4531,184.874Q163.125,186.624,159.4062,186.624Q155.0938,186.624,151.3281,184.34269999999998Q147.5781,182.04590000000002,145.2812,177.6552Q143,173.2646,143,167.2646Q143,161.3427,145.2812,156.9521Q147.5781,152.5615,151.3281,150.2334Q155.0938,147.9052,159.4062,147.9052Q162.9844,147.9052,166.2031,149.5302Q169.4375,151.1552,171.5156,154.4052L171.5156,131.624ZM160.1719,180.9052Q164.7969,180.9052,168.1562,177.624Q171.5156,174.3271,171.5156,167.2177Q171.5156,160.2021,168.1562,156.92090000000002Q164.7969,153.624,160.1719,153.624Q155.3281,153.624,152.4062,157.2021Q149.4844,160.7802,149.4844,167.2177Q149.4844,173.749,152.4062,177.3271Q155.3281,180.9052,160.1719,180.9052ZM204.4062,147.624Q210.828,147.624,214.906,151.4677Q219,155.3115,219,162.42090000000002L219,185.7646L213.094,185.7646Q213.094,181.79590000000002,213.094,180.6396Q211.344,183.59269999999998,208.406,185.10840000000002Q205.4688,186.624,201.7188,186.624Q198.0781,186.624,194.9219,185.3271Q191.7656,184.03019999999998,189.875,181.4677Q188,178.8896,188,175.29590000000002Q188,169.874,192.5,166.749Q197.0156,163.624,204.1562,163.624Q208.188,163.624,212.51600000000002,164.7021L212.51600000000002,164.0302Q212.51600000000002,158.624,210.39100000000002,155.98340000000002Q208.26600000000002,153.3427,203.9688,153.3427Q200.5156,153.3427,198.2188,154.8427Q195.9219,156.3271,194.3438,159.23340000000002L189.6094,156.4677Q191.3594,152.4521,195.3281,150.0459Q199.3125,147.624,204.4062,147.624ZM212.51600000000002,169.6865Q208,168.624,204.25,168.624Q199.5781,168.624,197.0312,170.29590000000002Q194.4844,171.9677,194.4844,174.9677Q194.4844,177.7802,196.6406,179.3427Q198.7969,180.9052,202.2344,180.9052Q206.4844,180.9052,209.5,178.60840000000002Q212.51600000000002,176.29590000000002,212.51600000000002,172.2177L212.51600000000002,169.6865Z" fill="#8758CD" fill-opacity="1"/></g><g style="mix-blend-mode:passthrough" filter="url(#master_svg4_9_084)"><path d="M174.38281,270.458Q176.48438,270.458,177.82031,271.7471Q179.1562,273.0283,179.1562,275.4033L179.1562,283.20799999999997L177.19531,283.20799999999997Q177.19531,281.8096,177.19531,281.4033Q176.625,282.4189,175.66406,282.9424Q174.70312,283.45799999999997,173.46875,283.45799999999997Q172.28906,283.45799999999997,171.25781,282.9971Q170.22656,282.5361,169.60938,281.6221Q169,280.7002,169,279.4189Q169,277.4814,170.46875,276.3643Q171.94531,275.2471,174.27344,275.2471Q175.59375,275.2471,177,275.6689L177,275.4736Q177,273.9268,176.3125,273.1768Q175.625,272.4189,174.23438,272.4189Q173.10938,272.4189,172.36719,272.8252Q171.625,273.2314,171.10938,274.0361L169.53125,273.2783Q170.10938,271.9893,171.40625,271.2236Q172.71094,270.458,174.38281,270.458ZM177,277.58299999999997Q175.53906,277.20799999999997,174.32812,277.20799999999997Q172.80469,277.20799999999997,171.97656,277.7939Q171.15625,278.3721,171.15625,279.4268Q171.15625,280.39549999999997,171.85156,280.9502Q172.55469,281.4971,173.67188,281.4971Q175.04688,281.4971,176.02344,280.6924Q177,279.8877,177,278.4658L177,277.58299999999997ZM191.1562,279.6768Q191.1562,280.7939,190.5625,281.6533Q189.9766,282.5127,188.9141,282.9893Q187.8594,283.45799999999997,186.4844,283.45799999999997Q184.6484,283.45799999999997,183.3203,282.6221Q182,281.7783,181.5938,280.3252L183.1641,279.45799999999997Q184.0547,281.4971,186.4844,281.4971Q187.6562,281.4971,188.3281,281.0283Q189,280.5518,189,279.7158Q189,279.0752,188.6016,278.6768Q188.2109,278.27049999999997,187.6172,278.0439Q187.0234,277.8174,185.9688,277.5127Q184.6953,277.1533,183.8984,276.8252Q183.1094,276.4893,182.5547,275.833Q182,275.1768,182,274.1064Q182,272.9971,182.6172,272.1689Q183.2344,271.333,184.2734,270.8955Q185.3203,270.458,186.5781,270.458Q188.2188,270.458,189.3984,271.2002Q190.5781,271.9346,190.9844,273.2158L189.4141,274.083Q189.0234,273.2861,188.2656,272.8564Q187.5156,272.4189,186.4844,272.4189Q185.4297,272.4189,184.7891,272.8408Q184.1562,273.2549,184.1562,274.0361Q184.1562,274.6143,184.5234,274.9736Q184.8984,275.3252,185.4531,275.5439Q186.0078,275.7549,187.0156,276.0439Q188.3359,276.3955,189.1562,276.7471Q189.9766,277.0908,190.5625,277.8018Q191.1562,278.5127,191.1562,279.6768ZM202.1562,279.6768Q202.1562,280.7939,201.5625,281.6533Q200.9766,282.5127,199.9141,282.9893Q198.8594,283.45799999999997,197.4844,283.45799999999997Q195.6484,283.45799999999997,194.3203,282.6221Q193,281.7783,192.5938,280.3252L194.1641,279.45799999999997Q195.0547,281.4971,197.4844,281.4971Q198.6562,281.4971,199.3281,281.0283Q200,280.5518,200,279.7158Q200,279.0752,199.6016,278.6768Q199.2109,278.27049999999997,198.6172,278.0439Q198.0234,277.8174,196.9688,277.5127Q195.6953,277.1533,194.8984,276.8252Q194.1094,276.4893,193.5547,275.833Q193,275.1768,193,274.1064Q193,272.9971,193.6172,272.1689Q194.2344,271.333,195.2734,270.8955Q196.3203,270.458,197.5781,270.458Q199.2188,270.458,200.3984,271.2002Q201.5781,271.9346,201.9844,273.2158L200.4141,274.083Q200.0234,273.2861,199.2656,272.8564Q198.5156,272.4189,197.4844,272.4189Q196.4297,272.4189,195.7891,272.8408Q195.1562,273.2549,195.1562,274.0361Q195.1562,274.6143,195.5234,274.9736Q195.8984,275.3252,196.4531,275.5439Q197.0078,275.7549,198.0156,276.0439Q199.3359,276.3955,200.1562,276.7471Q200.9766,277.0908,201.5625,277.8018Q202.1562,278.5127,202.1562,279.6768ZM205.7422,268.208Q205.2266,268.208,204.8594,267.75488Q204.5,267.30175,204.5,266.708Q204.5,266.11425,204.8594,265.66113Q205.2266,265.208,205.7422,265.208Q206.2656,265.208,206.6328,265.65331Q207,266.09081,207,266.708Q207,267.30175,206.6172,267.75488Q206.2422,268.208,205.7422,268.208ZM207,283.20799999999997L204.8438,283.20799999999997L204.8438,270.708L207,270.708L207,283.20799999999997ZM218.6562,279.6768Q218.6562,280.7939,218.0625,281.6533Q217.4766,282.5127,216.4141,282.9893Q215.3594,283.45799999999997,213.9844,283.45799999999997Q212.1484,283.45799999999997,210.8203,282.6221Q209.5,281.7783,209.0938,280.3252L210.6641,279.45799999999997Q211.5547,281.4971,213.9844,281.4971Q215.1562,281.4971,215.8281,281.0283Q216.5,280.5518,216.5,279.7158Q216.5,279.0752,216.1016,278.6768Q215.7109,278.27049999999997,215.1172,278.0439Q214.5234,277.8174,213.4688,277.5127Q212.1953,277.1533,211.3984,276.8252Q210.6094,276.4893,210.0547,275.833Q209.5,275.1768,209.5,274.1064Q209.5,272.9971,210.1172,272.1689Q210.7344,271.333,211.7734,270.8955Q212.8203,270.458,214.0781,270.458Q215.7188,270.458,216.8984,271.2002Q218.0781,271.9346,218.4844,273.2158L216.9141,274.083Q216.5234,273.2861,215.7656,272.8564Q215.0156,272.4189,213.9844,272.4189Q212.9297,272.4189,212.2891,272.8408Q211.6562,273.2549,211.6562,274.0361Q211.6562,274.6143,212.0234,274.9736Q212.3984,275.3252,212.9531,275.5439Q213.5078,275.7549,214.5156,276.0439Q215.8359,276.3955,216.6562,276.7471Q217.4766,277.0908,218.0625,277.8018Q218.6562,278.5127,218.6562,279.6768ZM228.125,282.7861Q227.1484,283.45799999999997,225.6562,283.45799999999997Q222,283.45799999999997,222,279.2314L222,272.6689L220,272.6689L220,270.708L222,270.708L222,266.958L224.1562,266.958L224.1562,270.708L227.5,270.708L227.5,272.6689L224.1562,272.6689L224.1562,278.9424Q224.1562,281.4971,225.9688,281.4971Q226.7656,281.4971,227.4531,281.0752L228.125,282.7861ZM234.8828,270.458Q236.9844,270.458,238.3203,271.7471Q239.6562,273.0283,239.6562,275.4033L239.6562,283.20799999999997L237.6953,283.20799999999997Q237.6953,281.8096,237.6953,281.4033Q237.125,282.4189,236.16410000000002,282.9424Q235.2031,283.45799999999997,233.9688,283.45799999999997Q232.78910000000002,283.45799999999997,231.7578,282.9971Q230.7266,282.5361,230.1094,281.6221Q229.5,280.7002,229.5,279.4189Q229.5,277.4814,230.9688,276.3643Q232.4453,275.2471,234.77339999999998,275.2471Q236.0938,275.2471,237.5,275.6689L237.5,275.4736Q237.5,273.9268,236.8125,273.1768Q236.125,272.4189,234.7344,272.4189Q233.6094,272.4189,232.8672,272.8252Q232.125,273.2314,231.6094,274.0361L230.0312,273.2783Q230.6094,271.9893,231.9062,271.2236Q233.21089999999998,270.458,234.8828,270.458ZM237.5,277.58299999999997Q236.03910000000002,277.20799999999997,234.8281,277.20799999999997Q233.3047,277.20799999999997,232.47660000000002,277.7939Q231.6562,278.3721,231.6562,279.4268Q231.6562,280.39549999999997,232.35160000000002,280.9502Q233.0547,281.4971,234.1719,281.4971Q235.5469,281.4971,236.52339999999998,280.6924Q237.5,279.8877,237.5,278.4658L237.5,277.58299999999997ZM249.6328,270.458Q251.6094,270.458,252.8047,271.7783Q254,273.0986,254,275.5205L254,283.20799999999997L251.8438,283.20799999999997L251.8438,276.1064Q251.8438,274.333,251.14839999999998,273.3799Q250.4531,272.4189,249.0938,272.4189Q248.21089999999998,272.4189,247.4219,272.8408Q246.6406,273.2549,246.14839999999998,274.083Q245.6562,274.9111,245.6562,276.1299L245.6562,283.20799999999997L243.5,283.20799999999997L243.5,270.708L245.4375,270.708Q245.4375,271.9424,245.5625,272.8252Q246.1875,271.6611,247.25,271.0596Q248.3125,270.458,249.6328,270.458ZM264.125,282.7861Q263.1484,283.45799999999997,261.6562,283.45799999999997Q258,283.45799999999997,258,279.2314L258,272.6689L256,272.6689L256,270.708L258,270.708L258,266.958L260.1562,266.958L260.1562,270.708L263.5,270.708L263.5,272.6689L260.1562,272.6689L260.1562,278.9424Q260.1562,281.4971,261.9688,281.4971Q262.7656,281.4971,263.4531,281.0752L264.125,282.7861Z" fill="#5C55A5" fill-opacity="1"/></g></g></svg>