<svg xmlns="http://www.w3.org/2000/svg" xmlns:xlink="http://www.w3.org/1999/xlink" fill="none" version="1.1" width="1129" height="663" viewBox="0 0 1129 663"><defs><clipPath id="master_svg0_70_7096"><rect x="0" y="0" width="1129" height="663" rx="0"/></clipPath></defs><g clip-path="url(#master_svg0_70_7096)"><g><ellipse cx="321" cy="321" rx="321" ry="321" fill="#F2F2F2" fill-opacity="1"/></g><g><ellipse cx="559" cy="635.4999580383301" rx="514" ry="27.500019073486328" fill="#3F3D56" fill-opacity="1"/></g><g style="opacity:0.20000000298023224;"><ellipse cx="558" cy="627" rx="460" ry="22" fill="#000000" fill-opacity="1"/></g><g><rect x="131" y="152.5" width="840" height="50" rx="0" fill="#3F3D56" fill-opacity="1"/></g><g><path d="M131,608.8299999999999C131.0000152588,620.798,140.70204,630.5,152.6701,630.5L949.33,630.5C961.298,630.5,971,620.798,971,608.8299999999999L971,177.5L131,177.5L131,608.8299999999999Z" fill="#3F3D56" fill-opacity="1"/></g><g><path d="M949.33,117.5L152.6701,117.5C140.70204,117.5000152588,131.0000152588,127.20204,131,139.1701L131,177.5L971,177.5L971,139.1701C971,127.20206,961.298,117.5000152588,949.33,117.5Z" fill="#3F3D56" fill-opacity="1"/></g><g style="opacity:0.20000000298023224;"><path d="M949.33,117.5L152.6701,117.5C140.70204,117.5000152588,131.0000152588,127.20204,131,139.1701L131,177.5L971,177.5L971,139.1701C971,127.20206,961.298,117.5000152588,949.33,117.5Z" fill="#000000" fill-opacity="1"/></g><g><ellipse cx="181" cy="147.5" rx="13" ry="13" fill="#3F3D56" fill-opacity="1"/></g><g><ellipse cx="217" cy="147.5" rx="13" ry="13" fill="#3F3D56" fill-opacity="1"/></g><g><ellipse cx="253" cy="147.5" rx="13" ry="13" fill="#3F3D56" fill-opacity="1"/></g><g><rect x="168" y="213.5" width="337" height="386" rx="5.335050106048584" fill="#606060" fill-opacity="1"/></g><g><rect x="603" y="272.5" width="284" height="22" rx="5.476379871368408" fill="#32599C" fill-opacity="1"/></g><g><rect x="223" y="302" width="192.5" height="192.5" rx="20" fill="#637DFF" fill-opacity="1"/></g><g><rect x="251" y="330" width="192.5" height="192.5" rx="20" fill="#5AA2EF" fill-opacity="1"/></g><g><rect x="537" y="352.5" width="416" height="15" rx="5.476379871368408" fill="#32599C" fill-opacity="1"/></g><g><rect x="537" y="396.5" width="416" height="15" rx="5.476379871368408" fill="#32599C" fill-opacity="1"/></g><g><rect x="537" y="440.5" width="416" height="15" rx="5.476379871368408" fill="#32599C" fill-opacity="1"/></g><g><rect x="537" y="484.5" width="416" height="15" rx="5.476379871368408" fill="#32599C" fill-opacity="1"/></g><g><rect x="865" y="552.5" width="88" height="26" rx="7.027560234069824" fill="#637DFF" fill-opacity="1"/></g><g><path d="M1053.1029115234376,506.115940625C1055.7637115234375,501.471740625,1057.1385115234375,496.202240625,1057.0858115234375,490.849940625C1057.0858115234375,477.053440625,1048.5422115234376,465.869140625,1038.0033115234376,465.869140625C1027.4643515234375,465.869140625,1018.9207763634375,477.053440625,1018.9207763634375,490.849940625C1018.8681640234375,496.202240625,1020.2430415234375,501.471740625,1022.9036915234375,506.115940625C1017.5931415234375,515.600640625,1017.5931415234375,527.163540625,1022.9036915234375,536.648040625C1017.5932615234375,546.132740625,1017.5932615234375,557.695540625,1022.9036915234375,567.180140625C1017.5932615234375,576.665140625,1017.5932615234375,588.228140625,1022.9036915234375,597.712140625C1020.2430415234375,602.356140625,1018.8682861234375,607.6261406250001,1018.9207763634375,612.978140625C1018.9207763634375,626.775140625,1027.4643515234375,637.959140625,1038.0033115234376,637.959140625C1048.5422115234376,637.959140625,1057.0858115234375,626.775140625,1057.0858115234375,612.978140625C1057.1385115234375,607.6261406250001,1055.7637115234375,602.356140625,1053.1029115234376,597.712140625C1058.4134115234374,588.228140625,1058.4134115234374,576.665140625,1053.1029115234376,567.180140625C1058.4134115234374,557.695540625,1058.4134115234374,546.132640625,1053.1029115234376,536.648040625C1058.4134115234374,527.163440625,1058.4134115234374,515.600540625,1053.1029115234376,506.115940625Z" fill="#3F3D56" fill-opacity="1"/></g><g><ellipse cx="1038.0032138824463" cy="460.3178367614746" rx="19.08255958557129" ry="24.98080062866211" fill="#3F3D56" fill-opacity="1"/></g><g><ellipse cx="1038.0032138824463" cy="429.7857322692871" rx="19.08255958557129" ry="24.98080062866211" fill="#3F3D56" fill-opacity="1"/></g><g><path d="M1109.43915234375,220.84442602539062C1112.04615234375,217.52542602539063,1114.42015234375,214.03042602539062,1116.54515234375,210.38442602539064L1066.40415234375,202.14942602539062L1120.63315234375,202.55242602539062C1131.14715234375,179.67642602539064,1131.77815234375,153.48172602539063,1122.37915234375,130.12632602539063L1049.62415234375,167.86762602539062L1116.72115234375,118.54682602539063C1090.15615234375,72.64227302539062,1030.22985234375,58.905826025390624,986.32335234375,88.65692602539062C942.41681234375,118.40802602539063,932.96195234375,179.15742602539063,965.74985234375,220.84442602539062C961.68605234375,226.01042602539061,958.19105234375,231.5994260253906,955.32532234375,237.51442602539063L1020.41185234375,271.3284260253906L951.01141234375,248.03642602539063C941.11151234375,277.3014260253906,946.65490734375,309.58642602539067,965.74975234375,333.87342602539064C936.27545234375,371.3454260253906,940.55176234375,425.17842602539065,975.57245234375,457.52742602539064C1010.5930523437501,489.87642602539063,1064.59515234375,489.87642602539063,1099.61615234375,457.52742602539064C1134.63615234375,425.17842602539065,1138.91315234375,371.3454260253906,1109.43915234375,333.87342602539064C1135.52015234375,300.71142602539067,1135.52015234375,254.00742602539063,1109.43915234375,220.84442602539062Z" fill-rule="evenodd" fill="#32599C" fill-opacity="1"/></g><g style="opacity:0.10000000149011612;"><path d="M946.18847655875,277.3591891015625C946.15692141875,297.8629291015625,953.04962171875,317.7766291015625,965.74971171875,333.8735291015625C936.27545171875,371.3458291015625,940.55176171875,425.1783291015625,975.57241171875,457.5273291015625C1010.59301171875,489.87632910156253,1064.59501171875,489.87632910156253,1099.61601171875,457.5273291015625C1134.63701171875,425.1783291015625,1138.91301171875,371.3458291015625,1109.43901171875,333.8735291015625C1121.69001171875,318.32062910156253,946.18847655875,267.1000691015625,946.18847655875,277.3591891015625Z" fill="#000000" fill-opacity="1"/></g></g></svg>